# xmcd CD database file
# Copyright (C) 1993-1997  Ti Kan
#
# Track frame offsets:
#	150
#	10060
#	22362
#	32452
#	44500
#	57632
#	71285
#	84137
#	95672
#	106772
#	117107
#	129280
#
# Disc length: 1902 seconds
#
# Revision: 1
# Processed by: cddbd v1.4b41PL1 Copyright (c) Steve Scherf et al.
# Submitted via: xmcd 2.2 PL0
#
DISCID=92076c0c
DTITLE=Songwriters' Tribute - Patsy Cline
DYEAR=1900
DGENRE=
TTITLE0=Lovin' In Vain
TTITLE1=Crazy
TTITLE2=I Love You So Much It Hurts
TTITLE3=You're Stronger Than Me
TTITLE4=Imagine That
TTITLE5=So Wrong
TTITLE6=When You Need A Laugh
TTITLE7=Your Kinda Love
TTITLE8=Leavin' On Your Mind
TTITLE9=That's How A Heartache Begins
TTITLE10=He Called Me Baby
TTITLE11=You Took Him Off My Hands
EXTD=
EXTT0=
EXTT1=
EXTT2=
EXTT3=
EXTT4=
EXTT5=
EXTT6=
EXTT7=
EXTT8=
EXTT9=
EXTT10=
EXTT11=
PLAYORDER=
